Coordinates
version=1
nRows=16
nColumns=63
inDegrees=yes

Units are S.I. units (second, meters, Newtons, ...)
If the header above contains a line with 'inDegrees', this indicates whether rotational values are in degrees (yes) or radians (no).

endheader
time	pelvis_tilt	pelvis_list	pelvis_rotation	pelvis_tx	pelvis_ty	pelvis_tz	hip_flexion_r	hip_adduction_r	hip_rotation_r	knee_angle_r	knee_angle_r_beta	ankle_angle_r	subtalar_angle_r	mtp_angle_r	hip_flexion_l	hip_adduction_l	hip_rotation_l	knee_angle_l	knee_angle_l_beta	ankle_angle_l	subtalar_angle_l	mtp_angle_l	L5_S1_Flex_Ext	L5_S1_Lat_Bending	L5_S1_axial_rotation	L4_L5_Flex_Ext	L4_L5_Lat_Bending	L4_L5_axial_rotation	L3_L4_Flex_Ext	L3_L4_Lat_Bending	L3_L4_axial_rotation	L2_L3_Flex_Ext	L2_L3_Lat_Bending	L2_L3_axial_rotation	L1_L2_Flex_Ext	L1_L2_Lat_Bending	L1_L2_axial_rotation	L1_T12_Flex_Ext	L1_T12_Lat_Bending	L1_T12_axial_rotation	Abs_r3	Abs_r2	Abs_r1	Abs_t1	Abs_t2	neck_flexion	neck_bending	neck_rotation	arm_flex_r	arm_add_r	arm_rot_r	elbow_flex_r	pro_sup_r	wrist_flex_r	wrist_dev_r	arm_flex_l	arm_add_l	arm_rot_l	elbow_flex_l	pro_sup_l	wrist_flex_l	wrist_dev_l
1.666667	11.563143	-1.116321	88.415818	0.379833	0.750651	0.709892	6.019967	5.714825	-1.478518	10.623814	0.185421	25.135731	-11.064097	0.000000	0.001482	-4.448574	11.419117	0.401489	0.007007	24.716727	-9.412554	0.000000	-0.130439	0.906978	-0.006928	-0.242238	1.206281	-0.007361	-0.214298	2.205227	-0.007361	-0.149079	2.205227	-0.006062	-0.121126	1.849510	-0.005629	-0.074533	1.404909	-0.005196	-0.931713	10.259920	-0.038531	0.000000	0.000000	15.613444	-9.093104	-8.564500	-3.555179	-21.531048	32.899167	31.106689	73.391505	-3.947876	0.876347	18.062213	-8.864345	167.251173	1.497484	6.891319	-7.448258	-7.661852
1.686275	11.645676	-1.147413	88.552050	0.379377	0.750349	0.710073	6.039285	5.742222	-2.247204	10.594497	0.184909	25.254782	-10.544700	0.000000	0.071560	-4.529075	11.744389	0.401025	0.006999	24.982215	-9.395402	0.000000	-0.122977	0.924256	-0.038624	-0.228381	1.229260	-0.041038	-0.202039	2.247236	-0.041038	-0.140551	2.247236	-0.033796	-0.114197	1.884743	-0.031382	-0.070269	1.431672	-0.028968	-0.878414	10.455367	-0.214816	0.000000	0.000000	15.629751	-9.337835	-8.582853	-4.020240	-21.938445	28.602525	32.371108	75.843022	-4.824875	1.436725	18.252179	-8.705547	163.720621	1.835781	6.258824	-7.788408	-8.763128
1.705882	11.674801	-1.156345	88.649818	0.379107	0.750114	0.710190	6.056097	5.720797	-3.003529	10.616308	0.185290	25.413959	-9.981535	0.000000	0.112255	-4.559807	11.999563	0.398263	0.006951	25.256631	-9.352464	0.000000	-0.118087	0.931074	-0.064177	-0.219300	1.238329	-0.068188	-0.194005	2.263814	-0.068188	-0.134962	2.263814	-0.056155	-0.109656	1.898647	-0.052144	-0.067475	1.442234	-0.048133	-0.843484	10.532499	-0.356934	0.000000	0.000000	15.692112	-9.504641	-8.692500	-4.246465	-22.152459	26.615140	32.961414	76.634841	-5.450798	1.566902	18.365780	-8.602138	159.448468	2.477537	5.483995	-7.823567	-9.923946
1.725490	11.625902	-1.149367	88.714042	0.379029	0.749971	0.710252	6.080324	5.620241	-3.781576	10.690115	0.186578	25.637710	-9.304020	0.000000	0.133028	-4.515798	12.134181	0.395167	0.006897	25.510344	-9.214153	0.000000	-0.114716	0.924139	-0.083067	-0.213038	1.229105	-0.088258	-0.188466	2.246951	-0.088258	-0.131108	2.246951	-0.072683	-0.106525	1.884504	-0.067492	-0.065548	1.431491	-0.062300	-0.819402	10.454045	-0.461993	0.000000	0.000000	15.804805	-9.575484	-8.912863	-4.211077	-22.126041	27.216730	32.770632	75.512297	-5.830798	1.194851	18.389461	-8.562958	154.536740	3.390167	4.711901	-7.716502	-11.101961
1.745098	11.535100	-1.116130	88.730324	0.379132	0.749963	0.710233	6.083996	5.490417	-4.444579	10.786396	0.188258	25.843894	-8.701586	0.000000	0.114557	-4.432882	12.172732	0.389551	0.006799	25.720286	-9.052482	0.000000	-0.114366	0.908872	-0.097291	-0.212390	1.208800	-0.103372	-0.187892	2.209832	-0.103372	-0.130709	2.209832	-0.085130	-0.106201	1.853372	-0.079049	-0.065349	1.407843	-0.072968	-0.816907	10.281345	-0.541103	0.000000	0.000000	15.966623	-9.586413	-9.158111	-3.853597	-21.876941	30.804742	31.707764	72.352140	-5.810895	0.332493	18.282170	-8.514091	149.606097	4.318989	4.072926	-7.309163	-12.155153
1.764706	11.397922	-1.070307	88.713565	0.379420	0.750087	0.710156	6.084703	5.325169	-5.008857	10.909873	0.190413	26.031738	-8.162416	0.000000	0.076168	-4.309580	12.123164	0.383111	0.006687	25.873760	-8.838425	0.000000	-0.114368	0.884740	-0.109177	-0.212392	1.176705	-0.116001	-0.187895	2.151158	-0.116001	-0.130711	2.151158	-0.095530	-0.106202	1.804163	-0.088707	-0.065350	1.370463	-0.081883	-0.816917	10.008361	-0.607211	0.000000	0.000000	16.162092	-9.533074	-9.409365	-3.148589	-21.370208	37.691808	29.665218	66.945143	-5.387430	-1.107486	18.039409	-8.464046	145.004000	5.201356	3.753491	-6.776621	-12.983271
1.784314	11.324768	-1.011531	88.650702	0.379521	0.750149	0.710001	6.074804	5.202705	-5.628731	11.054204	0.192932	26.251864	-7.427363	0.000000	0.011082	-4.237783	12.045873	0.374755	0.006541	26.019401	-8.685686	0.000000	-0.118337	0.872634	-0.099953	-0.219764	1.160604	-0.106200	-0.194416	2.121723	-0.106200	-0.135248	2.121723	-0.087459	-0.109888	1.779476	-0.081212	-0.067618	1.351711	-0.074965	-0.845270	9.871415	-0.555911	0.000000	0.000000	16.505119	-9.595953	-9.655227	-3.085538	-21.329837	38.650597	29.354715	65.835663	-5.510125	-1.221715	17.737873	-8.272677	140.845570	6.072433	3.995256	-6.298023	-13.476099
1.803922	11.255846	-0.943144	88.545551	0.379682	0.750276	0.709806	6.054963	5.100337	-6.005317	11.196439	0.195415	26.390930	-6.918341	0.000000	-0.072381	-4.169519	11.966610	0.365368	0.006377	26.100400	-8.627806	0.000000	-0.124177	0.860989	-0.082490	-0.230610	1.145115	-0.087645	-0.204011	2.093408	-0.087645	-0.141922	2.093408	-0.072179	-0.115311	1.755728	-0.067023	-0.070955	1.333672	-0.061867	-0.886987	9.739677	-0.458784	0.000000	0.000000	16.926814	-9.663193	-9.848499	-3.036620	-21.302077	39.603108	29.051489	64.798262	-5.629412	-1.237739	17.362967	-8.012949	137.448622	6.807768	4.614187	-5.872795	-13.629619
1.823529	11.196109	-0.874821	88.402430	0.379925	0.750439	0.709564	6.026719	5.031847	-6.043810	11.315752	0.197497	26.423022	-6.757151	0.000000	-0.163737	-4.112057	11.907924	0.355574	0.006206	26.120699	-8.687397	0.000000	-0.130386	0.850592	-0.056135	-0.242139	1.131287	-0.059644	-0.214211	2.068129	-0.059644	-0.149018	2.068129	-0.049118	-0.121076	1.734527	-0.045610	-0.074502	1.317567	-0.042102	-0.931331	9.622066	-0.312208	0.000000	0.000000	17.437658	-9.744474	-9.967943	-3.058544	-21.263179	40.292323	28.789110	64.114571	-5.721893	-1.109681	16.936748	-7.687768	135.141884	7.354615	5.211677	-5.507810	-13.438994
1.843137	11.144822	-0.794682	88.206794	0.380257	0.750655	0.709293	5.977236	4.980126	-5.934046	11.411168	0.199162	26.428693	-6.625414	0.000000	-0.278347	-4.062767	11.690877	0.345003	0.006021	26.153364	-8.618755	0.000000	-0.139481	0.841049	-0.024607	-0.259030	1.118595	-0.026145	-0.229154	2.044926	-0.026145	-0.159413	2.044926	-0.021531	-0.129522	1.715067	-0.019993	-0.079700	1.302785	-0.018455	-0.996300	9.514114	-0.136858	0.000000	0.000000	18.026671	-9.819610	-9.998257	-3.080317	-21.246160	40.986687	28.551600	63.469847	-5.797196	-0.849924	16.457243	-7.346030	133.253822	7.764593	5.784954	-5.179990	-13.180301
1.862745	11.097239	-0.716957	87.961961	0.380729	0.750891	0.709002	5.911161	4.953544	-5.562593	11.460594	0.200025	26.373063	-6.687594	0.000000	-0.400706	-4.019163	11.480757	0.333982	0.005829	26.158365	-8.668421	0.000000	-0.149158	0.831179	0.012927	-0.277001	1.105468	0.013735	-0.245051	2.020929	0.013735	-0.170473	2.020929	0.011311	-0.138508	1.694940	0.010503	-0.085229	1.287496	0.009695	-1.065420	9.402463	0.071895	0.000000	0.000000	18.687330	-9.877168	-9.965629	-3.137087	-21.226825	41.495622	28.361071	63.126475	-5.836629	-0.444761	15.923325	-6.993363	132.071082	7.983734	6.038044	-4.793236	-12.844480
1.882353	11.054265	-0.643276	87.677299	0.381339	0.751136	0.708721	5.824324	4.952060	-4.949789	11.449748	0.199836	26.271610	-6.916934	0.000000	-0.527930	-3.983407	11.272931	0.322607	0.005631	26.149165	-8.815035	0.000000	-0.159304	0.820514	0.054252	-0.295844	1.091283	0.057642	-0.261721	1.994997	0.057642	-0.182069	1.994997	0.047470	-0.147930	1.673192	0.044079	-0.091027	1.270976	0.040689	-1.137895	9.281815	0.301732	0.000000	0.000000	19.392454	-9.894574	-9.902138	-3.226235	-21.192870	41.727573	28.216323	63.281076	-5.801444	0.085600	15.333962	-6.644734	131.274213	8.027028	6.168114	-4.329489	-12.455353
1.901961	11.012862	-0.579538	87.371573	0.382073	0.751381	0.708465	5.714117	4.969024	-4.180885	11.358296	0.198240	26.146120	-7.219806	0.000000	-0.651381	-3.952547	11.124959	0.311944	0.005444	26.099869	-9.126414	0.000000	-0.168414	0.808327	0.097866	-0.312761	1.075074	0.103982	-0.276687	1.965365	0.103982	-0.192480	1.965365	0.085632	-0.156389	1.648340	0.079516	-0.096232	1.252098	0.073399	-1.202963	9.143952	0.544299	0.000000	0.000000	20.104657	-9.859456	-9.849762	-3.325415	-21.155447	41.827783	28.100064	63.681616	-5.728866	0.676395	14.699850	-6.310271	131.012474	7.901189	6.157669	-3.909638	-12.019151
1.921569	10.979101	-0.521865	87.053281	0.382904	0.751632	0.708236	5.567380	5.011375	-3.202106	11.172869	0.195003	25.967456	-7.686578	0.000000	-0.775703	-3.932449	10.961041	0.303167	0.005291	26.026513	-9.478737	0.000000	-0.176661	0.795786	0.143157	-0.328077	1.058396	0.152104	-0.290236	1.934874	0.152104	-0.201906	1.934874	0.125262	-0.164047	1.622767	0.116315	-0.100944	1.232673	0.107367	-1.261872	9.002092	0.796194	0.000000	0.000000	20.786385	-9.783756	-9.822919	-3.445662	-21.107629	41.676671	28.020024	64.478961	-5.558545	1.328079	14.020322	-5.989809	131.374522	7.581929	6.044574	-3.595995	-11.566931
1.941176	10.956763	-0.465045	86.726958	0.383785	0.751892	0.708031	5.377294	5.068770	-2.193769	10.897826	0.190203	25.792664	-8.072537	0.000000	-0.907953	-3.924570	10.657925	0.296614	0.005177	25.953659	-9.691336	0.000000	-0.184517	0.783896	0.189529	-0.342666	1.042581	0.201375	-0.303143	1.905964	0.201375	-0.210884	1.905964	0.165838	-0.171342	1.598520	0.153992	-0.105433	1.214254	0.142147	-1.317986	8.867583	1.054103	0.000000	0.000000	21.409030	-9.687515	-9.858692	-3.577592	-21.062585	41.323117	27.975218	65.629071	-5.305004	2.015315	13.294779	-5.681564	132.189459	7.075144	5.978052	-3.432405	-11.109174
1.960784	10.945530	-0.426211	86.417083	0.384684	0.752112	0.707862	5.159158	5.143968	-1.027827	10.528852	0.183763	25.567839	-8.597407	0.000000	-1.025490	-3.927894	10.415366	0.293208	0.005117	25.824893	-10.000625	0.000000	-0.188810	0.773530	0.233621	-0.350639	1.028795	0.248222	-0.310196	1.880761	0.248222	-0.215791	1.880761	0.204418	-0.175329	1.577383	0.189817	-0.107886	1.198198	0.175216	-1.348649	8.750328	1.299330	0.000000	0.000000	21.958828	-9.600034	-9.923442	-3.732610	-21.022797	40.754070	27.975395	67.083270	-4.953845	2.708203	12.535681	-5.394313	133.884854	6.373251	5.712773	-3.465982	-10.678236
